<?xml version="1.0" encoding="UTF-8"?>
<svg width="133px" height="45px" viewBox="0 0 133 45" version="1.1" xmlns="http://www.w3.org/2000/svg" xmlns:xlink="http://www.w3.org/1999/xlink">
    <!-- Generator: Sketch 50.2 (55047) - http://www.bohemiancoding.com/sketch -->
    <title>app-store-apple</title>
    <desc>Created with Sketch.</desc>
    <defs></defs>
    <g id="Page-1" stroke="none" stroke-width="1" fill="none" fill-rule="evenodd">
        <g id="Ignyte-Landing-Page-1" transform="translate(-209.000000, -458.000000)" fill-rule="nonzero">
            <g id="app-store-apple" transform="translate(209.000000, 458.000000)">
                <path d="M122.352083,0.199115044 L10.56875,0.199115044 C10.1729167,0.199115044 9.77708333,0.199115044 9.34166667,0.199115044 C8.98541667,0.199115044 8.66875,0.199115044 8.3125,0.199115044 C7.56041667,0.199115044 6.80833333,0.278761062 6.09583333,0.398230088 C5.34375,0.517699115 4.67083333,0.756637168 3.99791667,1.11504425 C3.325,1.47345133 2.73125,1.91150442 2.21666667,2.42920354 C1.70208333,2.94690265 1.22708333,3.5840708 0.910416667,4.26106195 C0.554166667,4.9380531 0.35625,5.65486726 0.197916667,6.37168142 C0.0791666667,7.12831858 -1.13686838e-13,7.84513274 -1.13686838e-13,8.60176991 C-1.13686838e-13,8.96017699 -1.13686838e-13,9.27876106 -1.13686838e-13,9.63716814 C-1.13686838e-13,10.0353982 -1.13686838e-13,10.4336283 -1.13686838e-13,10.8716814 L-1.13686838e-13,34.2477876 C-1.13686838e-13,34.6460177 -1.13686838e-13,35.0840708 -1.13686838e-13,35.4823009 C-1.13686838e-13,35.840708 -1.13686838e-13,36.159292 -1.13686838e-13,36.5176991 C-1.13686838e-13,37.2743363 0.0791666667,38.0309735 0.197916667,38.7477876 C0.316666667,39.5044248 0.554166667,40.1814159 0.910416667,40.8584071 C1.26666667,41.5353982 1.70208333,42.1327434 2.21666667,42.6504425 C2.73125,43.1681416 3.36458333,43.6460177 3.99791667,43.9646018 C4.67083333,44.3230088 5.38333333,44.5221239 6.09583333,44.6814159 C6.84791667,44.800885 7.6,44.840708 8.3125,44.880531 C8.66875,44.880531 8.98541667,44.880531 9.34166667,44.880531 C9.7375,44.880531 10.1333333,44.880531 10.56875,44.880531 L122.352083,44.880531 C122.747917,44.880531 123.14375,44.880531 123.539583,44.880531 C123.895833,44.880531 124.2125,44.880531 124.56875,44.880531 C125.320833,44.840708 126.072917,44.800885 126.785417,44.6814159 C127.5375,44.5619469 128.210417,44.3230088 128.922917,43.9646018 C129.595833,43.6061947 130.189583,43.1681416 130.704167,42.6504425 C131.21875,42.1327434 131.654167,41.4955752 132.010417,40.8584071 C132.366667,40.1814159 132.564583,39.4646018 132.683333,38.7477876 C132.802083,37.9911504 132.88125,37.2743363 132.88125,36.5176991 C132.88125,36.159292 132.88125,35.840708 132.88125,35.4823009 C132.88125,35.0840708 132.88125,34.6858407 132.88125,34.2477876 L132.88125,10.8318584 C132.88125,10.4336283 132.88125,10.0353982 132.88125,9.59734513 C132.88125,9.23893805 132.88125,8.92035398 132.88125,8.5619469 C132.841667,7.80530973 132.802083,7.04867257 132.683333,6.33185841 C132.564583,5.57522124 132.327083,4.89823009 132.010417,4.22123894 C131.654167,3.54424779 131.21875,2.94690265 130.704167,2.38938053 C130.189583,1.87168142 129.55625,1.43362832 128.922917,1.07522124 C128.25,0.716814159 127.5375,0.517699115 126.785417,0.35840708 C126.072917,0.238938053 125.320833,0.199115044 124.56875,0.159292035 C124.2125,0.159292035 123.895833,0.159292035 123.539583,0.159292035 C123.14375,0.199115044 122.747917,0.199115044 122.352083,0.199115044 Z" id="Shape" fill="#B1B3B6"></path>
                <path d="M9.38125,43.9247788 C9.025,43.9247788 8.70833333,43.9247788 8.39166667,43.9247788 C7.75833333,43.9247788 7.04583333,43.8849558 6.33333333,43.7256637 C5.66041667,43.6061947 5.06666667,43.4070796 4.47291667,43.1283186 C3.87916667,42.8495575 3.36458333,42.4513274 2.92916667,41.9734513 C2.45416667,41.5353982 2.09791667,40.9778761 1.78125,40.420354 C1.50416667,39.8628319 1.30625,39.2654867 1.1875,38.5486726 C1.06875,37.7920354 1.02916667,37.0353982 0.989583333,36.4380531 C0.989583333,36.199115 0.989583333,35.4026549 0.989583333,35.4026549 L0.989583333,9.63716814 C0.989583333,9.63716814 0.989583333,8.88053097 0.989583333,8.64159292 C0.989583333,8.04424779 1.02916667,7.28761062 1.1875,6.53097345 C1.30625,5.8539823 1.50416667,5.25663717 1.78125,4.65929204 C2.05833333,4.0619469 2.45416667,3.54424779 2.88958333,3.10619469 C3.36458333,2.62831858 3.87916667,2.2699115 4.43333333,1.95132743 C4.9875,1.67256637 5.62083333,1.47345133 6.25416667,1.3539823 C7.00625,1.23451327 7.75833333,1.19469027 8.35208333,1.15486726 L9.34166667,1.15486726 L123.539583,1.15486726 L124.56875,1.15486726 C125.122917,1.15486726 125.914583,1.19469027 126.627083,1.3539823 C127.3,1.47345133 127.89375,1.67256637 128.4875,1.95132743 C129.041667,2.2300885 129.595833,2.62831858 130.03125,3.10619469 C130.50625,3.54424779 130.8625,4.10176991 131.179167,4.65929204 C131.45625,5.21681416 131.654167,5.8539823 131.772917,6.49115044 C131.891667,7.2079646 131.93125,7.92477876 131.970833,8.60176991 C131.970833,8.92035398 131.970833,9.23893805 131.970833,9.59734513 C131.970833,10.0353982 131.970833,10.4336283 131.970833,10.8318584 L131.970833,34.2477876 C131.970833,34.6460177 131.970833,35.0442478 131.970833,35.4424779 C131.970833,35.800885 131.970833,36.119469 131.970833,36.4778761 C131.93125,37.1548673 131.891667,37.8716814 131.772917,38.5486726 C131.654167,39.2256637 131.45625,39.8230088 131.179167,40.420354 C130.8625,41.0176991 130.50625,41.5353982 130.070833,41.9734513 C129.595833,42.4513274 129.08125,42.8097345 128.527083,43.1283186 C127.933333,43.4070796 127.379167,43.6061947 126.666667,43.7256637 C125.954167,43.8451327 125.202083,43.8849558 124.608333,43.9247788 C124.291667,43.9247788 123.935417,43.9247788 123.61875,43.9247788 L122.43125,43.9247788 L9.38125,43.9247788 Z" id="Shape" fill="#000000"></path>
                <path d="M27.5104167,22.8584071 C27.4708333,19.7920354 30.0041667,18.2787611 30.1229167,18.199115 C28.6979167,16.0884956 26.48125,15.8097345 25.6895833,15.7699115 C23.8291667,15.5707965 22.0083333,16.8849558 21.0583333,16.8849558 C20.1083333,16.8849558 18.64375,15.7699115 17.0604167,15.8097345 C15.0416667,15.8495575 13.1416667,17.0044248 12.0729167,18.8761062 C9.93541667,22.619469 11.51875,28.1150442 13.5770833,31.1415929 C14.60625,32.6150442 15.79375,34.2876106 17.3770833,34.2079646 C18.9208333,34.1283186 19.475,33.2123894 21.3354167,33.2123894 C23.1958333,33.2123894 23.7104167,34.2079646 25.3333333,34.1681416 C26.9958333,34.1283186 28.025,32.6946903 29.0145833,31.1814159 C30.2020833,29.4690265 30.6770833,27.7964602 30.7166667,27.7168142 C30.7166667,27.7964602 27.55,26.5619469 27.5104167,22.8584071 Z" id="Shape" fill="#FFFFFF"></path>
                <path d="M24.4625,13.8185841 C25.29375,12.7831858 25.8479167,11.3495575 25.6895833,9.9159292 C24.5020833,9.95575221 22.9979167,10.7522124 22.1270833,11.7876106 C21.375,12.7035398 20.6625,14.1769912 20.8604167,15.5309735 C22.20625,15.6504425 23.5916667,14.8539823 24.4625,13.8185841 Z" id="Shape" fill="#FFFFFF"></path>
                <path d="M42.275,28.7920354 L46.43125,28.7920354 L44.3729167,22.699115 L44.3333333,22.699115 L42.275,28.7920354 Z M46.9854167,30.5044248 L41.7208333,30.5044248 L40.4541667,34.2477876 L38.2375,34.2477876 L43.225,20.3495575 L45.5208333,20.3495575 L50.5083333,34.2477876 L48.2520833,34.2477876 L46.9854167,30.5044248 Z" id="Shape" fill="#FFFFFF"></path>
                <path d="M59.1375,29.2300885 C59.1375,27.199115 58.06875,25.8451327 56.4854167,25.8451327 C54.9020833,25.8451327 53.8333333,27.2389381 53.8333333,29.2300885 C53.8333333,31.2610619 54.9020833,32.6548673 56.4854167,32.6548673 C58.1083333,32.6150442 59.1375,31.300885 59.1375,29.2300885 Z M61.275,29.2300885 C61.275,32.3761062 59.6125,34.4070796 57.0791667,34.4070796 C55.6541667,34.4070796 54.50625,33.7699115 53.9125,32.6548673 L53.8729167,32.6548673 L53.8729167,37.6725664 L51.8145833,37.6725664 L51.8145833,24.1725664 L53.79375,24.1725664 L53.79375,25.8451327 L53.8333333,25.8451327 C54.4270833,24.7699115 55.6145833,24.0530973 57.0395833,24.0530973 C59.5729167,24.0530973 61.275,26.0840708 61.275,29.2300885 Z" id="Shape" fill="#FFFFFF"></path>
                <path d="M70.2208333,29.2300885 C70.2208333,27.199115 69.1520833,25.8451327 67.56875,25.8451327 C65.9854167,25.8451327 64.9166667,27.2389381 64.9166667,29.2300885 C64.9166667,31.2610619 65.9854167,32.6548673 67.56875,32.6548673 C69.1520833,32.6150442 70.2208333,31.300885 70.2208333,29.2300885 Z M72.3583333,29.2300885 C72.3583333,32.3761062 70.6958333,34.4070796 68.1625,34.4070796 C66.7375,34.4070796 65.5895833,33.7699115 64.9958333,32.6548673 L64.9166667,32.6548673 L64.9166667,37.6725664 L62.8583333,37.6725664 L62.8583333,24.1725664 L64.8375,24.1725664 L64.8375,25.8451327 L64.8770833,25.8451327 C65.4708333,24.7699115 66.6583333,24.0530973 68.0833333,24.0530973 C70.65625,24.0530973 72.3583333,26.0840708 72.3583333,29.2300885 Z" id="Shape" fill="#FFFFFF"></path>
                <path d="M79.68125,30.4247788 C79.8395833,31.8185841 81.1458333,32.6946903 82.9666667,32.6946903 C84.7083333,32.6946903 85.975,31.7787611 85.975,30.5442478 C85.975,29.4690265 85.2229167,28.8318584 83.4416667,28.3938053 L81.6604167,27.9557522 C79.1270833,27.3584071 77.9395833,26.1637168 77.9395833,24.2123894 C77.9395833,21.8230088 79.9979167,20.1902655 82.9666667,20.1902655 C85.8958333,20.1902655 87.875,21.8230088 87.9541667,24.2123894 L85.85625,24.2123894 C85.7375,22.8185841 84.5895833,21.9823009 82.9270833,21.9823009 C81.2645833,21.9823009 80.1166667,22.8185841 80.1166667,24.0530973 C80.1166667,25.0486726 80.8291667,25.6061947 82.6104167,26.0442478 L84.1145833,26.4026549 C86.9645833,27.079646 88.1125,28.2345133 88.1125,30.2654867 C88.1125,32.8539823 86.0541667,34.4867257 82.76875,34.4867257 C79.7208333,34.4867257 77.6229167,32.8938053 77.5041667,30.3849558 L79.68125,30.3849558 L79.68125,30.4247788 Z" id="Shape" fill="#FFFFFF"></path>
                <path d="M92.5854167,21.7433628 L92.5854167,24.1327434 L94.4854167,24.1327434 L94.4854167,25.7654867 L92.5854167,25.7654867 L92.5854167,31.340708 C92.5854167,32.2168142 92.98125,32.6150442 93.8125,32.6150442 C94.0104167,32.6150442 94.3666667,32.5752212 94.4854167,32.5752212 L94.4854167,34.2477876 C94.2479167,34.2876106 93.8125,34.3274336 93.3375,34.3274336 C91.31875,34.3274336 90.4875,33.5707965 90.4875,31.579646 L90.4875,25.8053097 L89.0625,25.8053097 L89.0625,24.1725664 L90.5270833,24.1725664 L90.5270833,21.7831858 L92.5854167,21.7831858 L92.5854167,21.7433628 Z" id="Shape" fill="#FFFFFF"></path>
                <path d="M103.035417,29.2300885 C103.035417,27.039823 102.045833,25.7654867 100.383333,25.7654867 C98.7208333,25.7654867 97.73125,27.079646 97.73125,29.2300885 C97.73125,31.420354 98.7208333,32.6946903 100.383333,32.6946903 C102.045833,32.6946903 103.035417,31.420354 103.035417,29.2300885 Z M95.59375,29.2300885 C95.59375,26.0442478 97.4541667,24.0530973 100.383333,24.0530973 C103.3125,24.0530973 105.172917,26.0442478 105.172917,29.2300885 C105.172917,32.4159292 103.3125,34.4070796 100.383333,34.4070796 C97.4541667,34.4070796 95.59375,32.4159292 95.59375,29.2300885 Z" id="Shape" fill="#FFFFFF"></path>
                <path d="M106.875,24.1725664 L108.854167,24.1725664 L108.854167,25.8849558 L108.89375,25.8849558 C109.210417,24.7300885 110.120833,24.0530973 111.308333,24.0530973 C111.585417,24.0530973 111.8625,24.0929204 112.020833,24.1327434 L112.020833,26.0840708 C111.8625,26.0044248 111.50625,25.9646018 111.110417,25.9646018 C109.764583,25.9646018 108.972917,26.880531 108.972917,28.2743363 L108.972917,34.2876106 L106.875,34.2876106 L106.875,24.1725664 Z" id="Shape" fill="#FFFFFF"></path>
                <path d="M114.554167,28.2743363 L119.58125,28.2743363 C119.541667,26.7212389 118.552083,25.6858407 117.127083,25.6858407 C115.6625,25.7256637 114.633333,26.7610619 114.554167,28.2743363 Z M121.520833,31.300885 C121.24375,33.1327434 119.4625,34.4070796 117.20625,34.4070796 C114.277083,34.4070796 112.45625,32.4159292 112.45625,29.2699115 C112.45625,26.0840708 114.277083,24.0530973 117.127083,24.0530973 C119.897917,24.0530973 121.679167,25.9646018 121.679167,29.0309735 L121.679167,29.7477876 L114.554167,29.7477876 L114.554167,29.8672566 C114.554167,31.579646 115.622917,32.7345133 117.245833,32.7345133 C118.39375,32.7345133 119.304167,32.1769912 119.58125,31.300885 L121.520833,31.300885 Z" id="Shape" fill="#FFFFFF"></path>
                <path d="M40.6520833,15.6504425 L41.91875,15.6504425 C43.3041667,15.6504425 44.0958333,14.7743363 44.0958333,13.2610619 C44.0958333,11.7477876 43.2645833,10.8716814 41.91875,10.8716814 L40.6520833,10.8716814 L40.6520833,15.6504425 Z M41.9979167,9.95575221 C43.9770833,9.95575221 45.125,11.1902655 45.125,13.2610619 C45.125,15.4115044 43.9770833,16.6061947 41.9979167,16.6061947 L39.5833333,16.6061947 L39.5833333,9.95575221 L41.9979167,9.95575221 Z" id="Shape" fill="#FFFFFF"></path>
                <path d="M49.99375,14.0973451 C49.99375,13.0221239 49.51875,12.3849558 48.6479167,12.3849558 C47.7770833,12.3849558 47.3020833,13.0221239 47.3020833,14.0973451 C47.3020833,15.2123894 47.7770833,15.8495575 48.6479167,15.8495575 C49.51875,15.8097345 49.99375,15.1725664 49.99375,14.0973451 Z M46.3125,14.0973451 C46.3125,12.4646018 47.2229167,11.4690265 48.6875,11.4690265 C50.1520833,11.4690265 51.0625,12.4646018 51.0625,14.0973451 C51.0625,15.7300885 50.1520833,16.7256637 48.6875,16.7256637 C47.1833333,16.7256637 46.3125,15.7300885 46.3125,14.0973451 Z" id="Shape" fill="#FFFFFF"></path>
                <polygon id="Shape" fill="#FFFFFF" points="57.2770833 16.6061947 56.2479167 16.6061947 55.21875 12.9026549 55.1395833 12.9026549 54.1104167 16.6061947 53.1208333 16.6061947 51.7354167 11.5884956 52.725 11.5884956 53.6354167 15.4115044 53.7145833 15.4115044 54.74375 11.5884956 55.69375 11.5884956 56.7229167 15.4115044 56.7625 15.4115044 57.6729167 11.5884956 58.6625 11.5884956"></polygon>
                <path d="M59.8104167,11.5884956 L60.7604167,11.5884956 L60.7604167,12.3849558 L60.8395833,12.3849558 C61.0770833,11.8274336 61.5916667,11.4690265 62.34375,11.4690265 C63.4520833,11.4690265 64.0854167,12.1460177 64.0854167,13.340708 L64.0854167,16.6061947 L63.0958333,16.6061947 L63.0958333,13.579646 C63.0958333,12.7831858 62.7395833,12.3849558 62.0270833,12.3849558 C61.3145833,12.3849558 60.8395833,12.8628319 60.8395833,13.659292 L60.8395833,16.6061947 L59.85,16.6061947 L59.85,11.5884956 L59.8104167,11.5884956 Z" id="Shape" fill="#FFFFFF"></path>
                <polygon id="Shape" fill="#FFFFFF" points="65.6291667 9.59734513 66.61875 9.59734513 66.61875 16.6061947 65.6291667 16.6061947"></polygon>
                <path d="M71.725,14.0973451 C71.725,13.0221239 71.25,12.3849558 70.3791667,12.3849558 C69.5083333,12.3849558 69.0333333,13.0221239 69.0333333,14.0973451 C69.0333333,15.2123894 69.5083333,15.8495575 70.3791667,15.8495575 C71.2104167,15.8097345 71.725,15.1725664 71.725,14.0973451 Z M68.0041667,14.0973451 C68.0041667,12.4646018 68.9145833,11.4690265 70.3791667,11.4690265 C71.84375,11.4690265 72.7541667,12.4646018 72.7541667,14.0973451 C72.7541667,15.7300885 71.84375,16.7256637 70.3791667,16.7256637 C68.9145833,16.7256637 68.0041667,15.7300885 68.0041667,14.0973451 Z" id="Shape" fill="#FFFFFF"></path>
                <path d="M76.9895833,14.7743363 L76.9895833,14.3362832 L75.7625,14.4159292 C75.0895833,14.4557522 74.7729167,14.6946903 74.7729167,15.1327434 C74.7729167,15.5707965 75.16875,15.8495575 75.6833333,15.8495575 C76.4354167,15.8495575 76.9895833,15.3716814 76.9895833,14.7743363 Z M73.74375,15.1725664 C73.74375,14.2566372 74.4166667,13.7389381 75.6041667,13.659292 L76.95,13.579646 L76.95,13.1415929 C76.95,12.6238938 76.59375,12.3053097 75.9208333,12.3053097 C75.3666667,12.3053097 74.9708333,12.5044248 74.8916667,12.8628319 L73.9416667,12.8628319 C74.0604167,11.9867257 74.8520833,11.4292035 76,11.4292035 C77.2666667,11.4292035 77.9791667,12.0663717 77.9791667,13.1017699 L77.9791667,16.5265487 L77.0291667,16.5265487 L77.0291667,15.8097345 L76.95,15.8097345 C76.6333333,16.3274336 76.11875,16.6061947 75.4458333,16.6061947 C74.45625,16.6858407 73.74375,16.1283186 73.74375,15.1725664 Z" id="Shape" fill="#FFFFFF"></path>
                <path d="M80.275,14.0973451 C80.275,15.1725664 80.7895833,15.8097345 81.6208333,15.8097345 C82.4520833,15.8097345 82.9666667,15.1725664 82.9666667,14.0973451 C82.9666667,13.0619469 82.4520833,12.3849558 81.6208333,12.3849558 C80.7895833,12.3849558 80.275,13.0221239 80.275,14.0973451 Z M79.2458333,14.0973451 C79.2458333,12.5044248 80.0770833,11.5088496 81.3041667,11.5088496 C81.9770833,11.5088496 82.5708333,11.8274336 82.8479167,12.3849558 L82.9270833,12.3849558 L82.9270833,9.63716814 L83.9166667,9.63716814 L83.9166667,16.6460177 L82.9666667,16.6460177 L82.9666667,15.8495575 L82.8875,15.8495575 C82.5708333,16.4070796 82.0166667,16.7256637 81.3041667,16.7256637 C80.0770833,16.6858407 79.2458333,15.6902655 79.2458333,14.0973451 Z" id="Shape" fill="#FFFFFF"></path>
                <path d="M91.7145833,14.0973451 C91.7145833,13.0221239 91.2395833,12.3849558 90.36875,12.3849558 C89.4979167,12.3849558 89.0229167,13.0221239 89.0229167,14.0973451 C89.0229167,15.2123894 89.4979167,15.8495575 90.36875,15.8495575 C91.2395833,15.8097345 91.7145833,15.1725664 91.7145833,14.0973451 Z M88.0333333,14.0973451 C88.0333333,12.4646018 88.94375,11.4690265 90.4083333,11.4690265 C91.8729167,11.4690265 92.7833333,12.4646018 92.7833333,14.0973451 C92.7833333,15.7300885 91.8729167,16.7256637 90.4083333,16.7256637 C88.9041667,16.7256637 88.0333333,15.7300885 88.0333333,14.0973451 Z" id="Shape" fill="#FFFFFF"></path>
                <path d="M94.05,11.5884956 L95,11.5884956 L95,12.3849558 L95.0791667,12.3849558 C95.3166667,11.8274336 95.83125,11.4690265 96.5833333,11.4690265 C97.6916667,11.4690265 98.325,12.1460177 98.325,13.340708 L98.325,16.6061947 L97.3354167,16.6061947 L97.3354167,13.579646 C97.3354167,12.7831858 96.9791667,12.3849558 96.2666667,12.3849558 C95.5541667,12.3849558 95.0791667,12.8628319 95.0791667,13.659292 L95.0791667,16.6061947 L94.0895833,16.6061947 L94.0895833,11.5884956 L94.05,11.5884956 Z" id="Shape" fill="#FFFFFF"></path>
                <path d="M103.90625,10.3141593 L103.90625,11.5884956 L104.975,11.5884956 L104.975,12.4247788 L103.90625,12.4247788 L103.90625,15.0132743 C103.90625,15.5309735 104.104167,15.7699115 104.61875,15.7699115 C104.777083,15.7699115 104.85625,15.7699115 105.014583,15.7300885 L105.014583,16.5663717 C104.85625,16.6061947 104.658333,16.6061947 104.460417,16.6061947 C103.352083,16.6061947 102.916667,16.2079646 102.916667,15.2522124 L102.916667,12.4247788 L102.125,12.4247788 L102.125,11.5884956 L102.916667,11.5884956 L102.916667,10.3141593 L103.90625,10.3141593 Z" id="Shape" fill="#FFFFFF"></path>
                <path d="M106.320833,9.59734513 L107.310417,9.59734513 L107.310417,12.3849558 L107.389583,12.3849558 C107.627083,11.8274336 108.141667,11.4690265 108.933333,11.4690265 C110.002083,11.4690265 110.675,12.1460177 110.675,13.340708 L110.675,16.6061947 L109.645833,16.6061947 L109.645833,13.619469 C109.645833,12.8230088 109.289583,12.4247788 108.577083,12.4247788 C107.785417,12.4247788 107.310417,12.9424779 107.310417,13.699115 L107.310417,16.6460177 L106.320833,16.6460177 L106.320833,9.59734513 Z" id="Shape" fill="#FFFFFF"></path>
                <path d="M112.93125,13.619469 L115.464583,13.619469 C115.425,12.8230088 114.95,12.3053097 114.2375,12.3053097 C113.485417,12.3451327 112.970833,12.8628319 112.93125,13.619469 Z M116.375,15.2522124 C116.1375,16.1681416 115.345833,16.7256637 114.197917,16.7256637 C112.772917,16.7256637 111.902083,15.7300885 111.902083,14.1371681 C111.902083,12.5442478 112.8125,11.5088496 114.197917,11.5088496 C115.583333,11.5088496 116.414583,12.4646018 116.414583,14.0575221 L116.414583,14.4159292 L112.891667,14.4159292 L112.891667,14.4557522 C112.93125,15.3318584 113.445833,15.8893805 114.2375,15.8893805 C114.83125,15.8893805 115.227083,15.6902655 115.425,15.2920354 L116.375,15.2920354 L116.375,15.2522124 Z" id="Shape" fill="#FFFFFF"></path>
            </g>
        </g>
    </g>
</svg>