<?xml version="1.0" encoding="UTF-8"?>
<svg width="151px" height="45px" viewBox="0 0 151 45" version="1.1" xmlns="http://www.w3.org/2000/svg" xmlns:xlink="http://www.w3.org/1999/xlink">
    <!-- Generator: Sketch 50.2 (55047) - http://www.bohemiancoding.com/sketch -->
    <title>app-store-google</title>
    <desc>Created with Sketch.</desc>
    <defs>
        <linearGradient x1="91.5573003%" y1="4.99589235%" x2="-38.4325069%" y2="71.8320113%" id="linearGradient-1">
            <stop stop-color="#00A0FF" offset="0%"></stop>
            <stop stop-color="#00A1FF" offset="0.657445%"></stop>
            <stop stop-color="#00BEFF" offset="26.01%"></stop>
            <stop stop-color="#00D2FF" offset="51.22%"></stop>
            <stop stop-color="#00DFFF" offset="76.04%"></stop>
            <stop stop-color="#00E3FF" offset="100%"></stop>
        </linearGradient>
        <linearGradient x1="107.502183%" y1="49.8979167%" x2="-130.168734%" y2="49.8979167%" id="linearGradient-2">
            <stop stop-color="#FFE000" offset="0%"></stop>
            <stop stop-color="#FFBD00" offset="40.87%"></stop>
            <stop stop-color="#FFA500" offset="77.54%"></stop>
            <stop stop-color="#FF9C00" offset="100%"></stop>
        </linearGradient>
        <linearGradient x1="86.2405117%" y1="17.7964534%" x2="-50.1953092%" y2="194.972963%" id="linearGradient-3">
            <stop stop-color="#FF3A44" offset="0%"></stop>
            <stop stop-color="#C31162" offset="100%"></stop>
        </linearGradient>
        <linearGradient x1="-18.849467%" y1="-54.2405671%" x2="42.0746269%" y2="24.7892546%" id="linearGradient-4">
            <stop stop-color="#32A071" offset="0%"></stop>
            <stop stop-color="#2DA771" offset="6.85%"></stop>
            <stop stop-color="#15CF74" offset="47.62%"></stop>
            <stop stop-color="#06E775" offset="80.09%"></stop>
            <stop stop-color="#00F076" offset="100%"></stop>
        </linearGradient>
    </defs>
    <g id="Page-1" stroke="none" stroke-width="1" fill="none" fill-rule="evenodd">
        <g id="Ignyte-Landing-Page-1" transform="translate(-356.000000, -458.000000)" fill-rule="nonzero">
            <g id="app-store-google" transform="translate(356.000000, 458.000000)">
                <g id="XMLID_112_" fill="#000000">
                    <path d="M145.134383,44.920354 L5.82598425,44.920354 C2.77427822,44.920354 0.237795276,42.4115044 0.237795276,39.3053097 L0.237795276,5.73451327 C0.237795276,2.66814159 2.73464567,0.119469027 5.82598425,0.119469027 L145.134383,0.119469027 C148.186089,0.119469027 150.722572,2.62831858 150.722572,5.73451327 L150.722572,39.3053097 C150.68294,42.4115044 148.186089,44.920354 145.134383,44.920354 Z" id="XMLID_114_"></path>
                </g>
                <g id="XMLID_107_" fill="#A6A6A6">
                    <g id="XMLID_108_">
                        <path d="M145.134383,1.03539823 C147.710499,1.03539823 149.811024,3.1460177 149.811024,5.73451327 L149.811024,39.3053097 C149.811024,41.8938053 147.710499,44.0044248 145.134383,44.0044248 L5.82598425,44.0044248 C3.24986877,44.0044248 1.14934383,41.8938053 1.14934383,39.3053097 L1.14934383,5.73451327 C1.14934383,3.1460177 3.24986877,1.03539823 5.82598425,1.03539823 L145.134383,1.03539823 Z M145.134383,0.119469027 L5.82598425,0.119469027 C2.77427822,0.119469027 0.237795276,2.66814159 0.237795276,5.73451327 L0.237795276,39.3053097 C0.237795276,42.3716814 2.73464567,44.920354 5.82598425,44.920354 L145.134383,44.920354 C148.186089,44.920354 150.722572,42.4115044 150.722572,39.3053097 L150.722572,5.73451327 C150.68294,2.66814159 148.186089,0.119469027 145.134383,0.119469027 Z" id="XMLID_109_"></path>
                    </g>
                </g>
                <g id="XMLID_85_" transform="translate(45.973753, 7.566372)" fill="#FFFFFF" stroke="#FFFFFF" stroke-width="0.2">
                    <path d="M7.13385827,4.02212389 C7.13385827,4.97787611 6.85643045,5.69469027 6.3015748,6.25221239 C5.66745407,6.92920354 4.8351706,7.24778761 3.84435696,7.24778761 C2.89317585,7.24778761 2.06089239,6.92920354 1.38713911,6.25221239 C0.713385827,5.57522124 0.356692913,4.73893805 0.356692913,3.74336283 C0.356692913,2.74778761 0.713385827,1.91150442 1.38713911,1.23451327 C2.06089239,0.557522124 2.89317585,0.238938053 3.84435696,0.238938053 C4.31994751,0.238938053 4.79553806,0.318584071 5.23149606,0.517699115 C5.66745407,0.716814159 6.02414698,0.955752212 6.26194226,1.27433628 L5.66745407,1.87168142 C5.23149606,1.3539823 4.59737533,1.07522124 3.84435696,1.07522124 C3.13097113,1.07522124 2.53648294,1.31415929 2.02125984,1.83185841 C1.50603675,2.30973451 1.26824147,2.98672566 1.26824147,3.78318584 C1.26824147,4.57964602 1.50603675,5.21681416 2.02125984,5.73451327 C2.53648294,6.21238938 3.13097113,6.49115044 3.84435696,6.49115044 C4.59737533,6.49115044 5.23149606,6.25221239 5.70708661,5.73451327 C6.02414698,5.4159292 6.22230971,4.9380531 6.26194226,4.38053097 L3.84435696,4.38053097 L3.84435696,3.5840708 L7.09422572,3.5840708 C7.09422572,3.70353982 7.13385827,3.86283186 7.13385827,4.02212389 Z" id="XMLID_105_"></path>
                    <polygon id="XMLID_103_" points="12.2464567 1.23451327 9.19475066 1.23451327 9.19475066 3.34513274 11.9293963 3.34513274 11.9293963 4.14159292 9.19475066 4.14159292 9.19475066 6.25221239 12.2464567 6.25221239 12.2464567 7.08849558 8.36246719 7.08849558 8.36246719 0.398230088 12.2464567 0.398230088"></polygon>
                    <polygon id="XMLID_101_" points="15.8926509 7.12831858 15.0207349 7.12831858 15.0207349 1.23451327 13.1580052 1.23451327 13.1580052 0.398230088 17.7553806 0.398230088 17.7553806 1.23451327 15.8926509 1.23451327 15.8926509 7.12831858"></polygon>
                    <polygon id="XMLID_99_" points="21.0845144 7.12831858 21.0845144 0.398230088 21.9564304 0.398230088 21.9564304 7.12831858"></polygon>
                    <polygon id="XMLID_97_" points="25.7215223 7.12831858 24.8496063 7.12831858 24.8496063 1.23451327 22.9868766 1.23451327 22.9868766 0.398230088 27.584252 0.398230088 27.584252 1.23451327 25.7215223 1.23451327 25.7215223 7.12831858"></polygon>
                    <path d="M36.3034121,6.25221239 C35.6296588,6.92920354 34.8370079,7.28761062 33.8461942,7.28761062 C32.8553806,7.28761062 32.0627297,6.92920354 31.3889764,6.25221239 C30.7152231,5.57522124 30.3981627,4.73893805 30.3981627,3.74336283 C30.3981627,2.74778761 30.7152231,1.91150442 31.3889764,1.23451327 C32.0627297,0.557522124 32.8553806,0.199115044 33.8461942,0.199115044 C34.8370079,0.199115044 35.6296588,0.557522124 36.3034121,1.23451327 C36.9771654,1.91150442 37.2942257,2.74778761 37.2942257,3.70353982 C37.2942257,4.73893805 36.9771654,5.57522124 36.3034121,6.25221239 Z M32.0230971,5.69469027 C32.4986877,6.21238938 33.1328084,6.45132743 33.8461942,6.45132743 C34.5595801,6.45132743 35.1540682,6.21238938 35.6692913,5.69469027 C36.1448819,5.17699115 36.4223097,4.53982301 36.4223097,3.78318584 C36.4223097,2.98672566 36.1845144,2.34955752 35.6692913,1.87168142 C35.1937008,1.3539823 34.5595801,1.11504425 33.8461942,1.11504425 C33.1328084,1.11504425 32.5383202,1.3539823 32.0230971,1.87168142 C31.5475066,2.38938053 31.2700787,3.02654867 31.2700787,3.78318584 C31.3097113,4.53982301 31.5475066,5.17699115 32.0230971,5.69469027 Z" id="XMLID_91_"></path>
                    <polygon id="XMLID_87_" points="38.4832021 7.12831858 38.4832021 0.398230088 39.5136483 0.398230088 42.7635171 5.61504425 42.8031496 5.61504425 42.7635171 4.30088496 42.7635171 0.398230088 43.6354331 0.398230088 43.6354331 7.12831858 42.7238845 7.12831858 39.3154856 1.63274336 39.275853 1.63274336 39.3154856 2.94690265 39.3154856 7.12831858"></polygon>
                </g>
                <path d="M76.1737533,24.4911504 C73.5580052,24.4911504 71.4178478,26.4823009 71.4178478,29.2699115 C71.4178478,32.0176991 73.5580052,34.0486726 76.1737533,34.0486726 C78.7895013,34.0486726 80.9296588,32.0176991 80.9296588,29.2699115 C80.9296588,26.4823009 78.7895013,24.4911504 76.1737533,24.4911504 Z M76.1737533,32.1371681 C74.7469816,32.1371681 73.5183727,30.9424779 73.5183727,29.2699115 C73.5183727,27.5575221 74.7469816,26.4026549 76.1737533,26.4026549 C77.6005249,26.4026549 78.8291339,27.5575221 78.8291339,29.2699115 C78.8687664,30.9424779 77.6005249,32.1371681 76.1737533,32.1371681 Z M65.7900262,24.4911504 C63.1742782,24.4911504 61.0341207,26.4823009 61.0341207,29.2699115 C61.0341207,32.0176991 63.1742782,34.0486726 65.7900262,34.0486726 C68.4057743,34.0486726 70.5459318,32.0176991 70.5459318,29.2699115 C70.5459318,26.4823009 68.4057743,24.4911504 65.7900262,24.4911504 Z M65.7900262,32.1371681 C64.3632546,32.1371681 63.1346457,30.9424779 63.1346457,29.2699115 C63.1346457,27.5575221 64.3632546,26.4026549 65.7900262,26.4026549 C67.2167979,26.4026549 68.4454068,27.5575221 68.4454068,29.2699115 C68.4850394,30.9424779 67.2564304,32.1371681 65.7900262,32.1371681 Z M53.4643045,25.9646018 L53.4643045,27.9955752 L58.2598425,27.9955752 C58.1013123,29.1504425 57.7446194,29.9469027 57.1501312,30.5442478 C56.4367454,31.2610619 55.3666667,32.0176991 53.4246719,32.0176991 C50.452231,32.0176991 48.1535433,29.6283186 48.1535433,26.6415929 C48.1535433,23.6548673 50.452231,21.2654867 53.4246719,21.2654867 C55.0099738,21.2654867 56.1989501,21.9026549 57.0708661,22.699115 L58.4976378,21.2654867 C57.3086614,20.1106195 55.683727,19.2345133 53.4643045,19.2345133 C49.4217848,19.2345133 46.0133858,22.539823 46.0133858,26.6415929 C46.0133858,30.7035398 49.4217848,34.0486726 53.4643045,34.0486726 C55.6440945,34.0486726 57.3086614,33.3318584 58.6165354,31.9778761 C59.964042,30.6238938 60.3603675,28.7522124 60.3603675,27.2389381 C60.3603675,26.7610619 60.3207349,26.3230088 60.2414698,25.9646018 L53.4643045,25.9646018 Z M103.956168,27.5176991 C103.559843,26.4424779 102.370866,24.4911504 99.9136483,24.4911504 C97.4564304,24.4911504 95.4351706,26.4026549 95.4351706,29.2699115 C95.4351706,31.9380531 97.4564304,34.0486726 100.151444,34.0486726 C102.331234,34.0486726 103.599475,32.6946903 104.114698,31.9380531 L102.489764,30.8628319 C101.934908,31.659292 101.221522,32.1769912 100.151444,32.1769912 C99.0813648,32.1769912 98.3283465,31.699115 97.8527559,30.7433628 L104.193963,28.1150442 L103.956168,27.5176991 Z M97.496063,29.1106195 C97.4564304,27.2787611 98.9228346,26.3230088 99.9929134,26.3230088 C100.825197,26.3230088 101.538583,26.7212389 101.736745,27.3185841 L97.496063,29.1106195 Z M92.343832,33.7300885 L94.444357,33.7300885 L94.444357,19.7123894 L92.343832,19.7123894 L92.343832,33.7300885 Z M88.9354331,25.5663717 L88.856168,25.5663717 C88.3805774,25.0088496 87.5086614,24.4911504 86.3593176,24.4911504 C83.9813648,24.4911504 81.8015748,26.6017699 81.8015748,29.2699115 C81.8015748,31.9380531 83.9813648,34.0088496 86.3593176,34.0088496 C87.5086614,34.0088496 88.3805774,33.4911504 88.856168,32.9336283 L88.9354331,32.9336283 L88.9354331,33.6106195 C88.9354331,35.4424779 87.984252,36.3982301 86.3989501,36.3982301 C85.1307087,36.3982301 84.3380577,35.4823009 84.0209974,34.6858407 L82.1979003,35.4424779 C82.7131234,36.7168142 84.1002625,38.2699115 86.3989501,38.2699115 C88.856168,38.2699115 90.9170604,36.8362832 90.9170604,33.2920354 L90.9170604,24.7699115 L88.9354331,24.7699115 L88.9354331,25.5663717 Z M86.5178478,32.1371681 C85.0910761,32.1371681 83.8624672,30.9424779 83.8624672,29.2699115 C83.8624672,27.5973451 85.0514436,26.3628319 86.5178478,26.3628319 C87.9446194,26.3628319 89.0543307,27.5973451 89.0543307,29.2699115 C89.0543307,30.9424779 87.9446194,32.1371681 86.5178478,32.1371681 Z M113.705774,19.7123894 L108.712073,19.7123894 L108.712073,33.6902655 L110.772966,33.6902655 L110.772966,28.4336283 L113.666142,28.4336283 C115.964829,28.4336283 118.223885,26.7610619 118.223885,24.0929204 C118.263517,21.3849558 116.004462,19.7123894 113.705774,19.7123894 Z M113.745407,26.4823009 L110.772966,26.4823009 L110.772966,21.7035398 L113.745407,21.7035398 C115.291076,21.7035398 116.162992,22.9778761 116.162992,24.0929204 C116.202625,25.1681416 115.291076,26.4823009 113.745407,26.4823009 Z M126.586352,24.4513274 C125.080315,24.4513274 123.534646,25.1283186 122.860892,26.6017699 L124.723622,27.3584071 C125.119948,26.6017699 125.833333,26.3230088 126.625984,26.3230088 C127.696063,26.3230088 128.805774,26.960177 128.805774,28.1150442 L128.805774,28.2743363 C128.449081,28.0752212 127.616798,27.7168142 126.625984,27.7168142 C124.644357,27.7168142 122.623097,28.8318584 122.623097,30.8628319 C122.623097,32.7345133 124.248031,33.9292035 126.071129,33.9292035 C127.458268,33.9292035 128.250919,33.2920354 128.726509,32.5752212 L128.805774,32.5752212 L128.805774,33.6504425 L130.827034,33.6504425 L130.827034,28.3539823 C130.827034,25.8451327 129.003937,24.4513274 126.586352,24.4513274 Z M126.348556,32.1371681 C125.674803,32.1371681 124.723622,31.7787611 124.723622,30.9424779 C124.723622,29.8672566 125.912598,29.4292035 126.943045,29.4292035 C127.854593,29.4292035 128.290551,29.6283186 128.845407,29.9070796 C128.647244,31.2212389 127.537533,32.1371681 126.348556,32.1371681 Z M138.159055,24.7699115 L135.781102,30.8230088 L135.701837,30.8230088 L133.244619,24.7699115 L130.985564,24.7699115 L134.711024,33.2522124 L132.610499,37.9513274 L134.790289,37.9513274 L140.497375,24.7699115 L138.159055,24.7699115 Z M119.412861,33.7300885 L121.473753,33.7300885 L121.473753,19.7123894 L119.412861,19.7123894 L119.412861,33.7300885 Z" id="XMLID_48_" fill="#FFFFFF"></path>
                <g id="XMLID_14_" transform="translate(11.097113, 7.964602)">
                    <path d="M0.792650919,0.597345133 C0.475590551,0.955752212 0.277427822,1.47345133 0.277427822,2.19026549 L0.277427822,26.960177 C0.277427822,27.6371681 0.475590551,28.1946903 0.792650919,28.5530973 L0.87191601,28.6327434 L14.664042,14.7345133 L14.664042,14.5752212 L14.664042,14.4159292 L0.87191601,0.517699115 L0.792650919,0.597345133 Z" id="XMLID_47_" fill="url(#linearGradient-1)"></path>
                    <path d="M19.2614173,19.3539823 L14.664042,14.7345133 L14.664042,14.5752212 L14.664042,14.4159292 L19.2614173,9.79646018 L19.380315,9.83628319 L24.8496063,12.9424779 C26.3952756,13.8185841 26.3952756,15.2920354 24.8496063,16.1681416 L19.380315,19.2743363 L19.2614173,19.3539823 Z" id="XMLID_46_" fill="url(#linearGradient-2)"></path>
                    <path d="M19.380315,19.3141593 L14.664042,14.5752212 L0.792650919,28.5132743 C1.30787402,29.0707965 2.14015748,29.1106195 3.09133858,28.5929204 L19.380315,19.3141593" id="XMLID_45_" fill="url(#linearGradient-3)"></path>
                    <path d="M19.380315,9.83628319 L3.09133858,0.557522124 C2.14015748,2.77555756e-16 1.30787402,0.0796460177 0.792650919,0.637168142 L14.664042,14.5752212 L19.380315,9.83628319 Z" id="XMLID_44_" fill="url(#linearGradient-4)"></path>
                    <g id="XMLID_40_" transform="translate(0.000000, 19.115044)" fill="#000000">
                        <path d="M19.2614173,0.0796460177 L3.09133858,9.31858407 C2.17979003,9.83628319 1.38713911,9.79646018 0.87191601,9.31858407 L0.792650919,9.39823009 L0.87191601,9.47787611 C1.38713911,9.95575221 2.21942257,9.99557522 3.09133858,9.47787611 L19.380315,0.199115044 L19.2614173,0.0796460177 Z" id="XMLID_43_" opacity="0.2"></path>
                        <path d="M0.792650919,9.23893805 C0.475590551,8.88053097 0.277427822,8.36283186 0.277427822,7.6460177 L0.277427822,7.80530973 C0.277427822,8.48230088 0.475590551,9.03982301 0.792650919,9.39823009 L0.87191601,9.31858407 L0.792650919,9.23893805 Z" id="XMLID_41_" opacity="0.12"></path>
                    </g>
                    <path d="M24.8496063,16.0088496 L19.3010499,19.1946903 L19.4199475,19.3141593 L24.8892388,16.2079646 C25.6818898,15.7699115 26.0385827,15.1725664 26.0385827,14.5752212 C25.919685,15.0929204 25.5233596,15.6106195 24.8496063,16.0088496 Z" id="XMLID_38_" fill="#000000" opacity="0.12"></path>
                    <path d="M3.09133858,0.716814159 L24.8099738,13.1415929 C25.5233596,13.539823 25.919685,14.0575221 25.9593176,14.5752212 C25.9593176,13.9778761 25.5629921,13.420354 24.8099738,12.9424779 L3.09133858,0.557522124 C1.54566929,-0.318584071 0.277427822,0.398230088 0.277427822,2.19026549 L0.277427822,2.34955752 C0.277427822,0.557522124 1.54566929,-0.199115044 3.09133858,0.716814159 Z" id="XMLID_19_" fill="#FFFFFF" opacity="0.25"></path>
                </g>
            </g>
        </g>
    </g>
</svg>