<?xml version="1.0" encoding="UTF-8"?>
<svg width="125px" height="185px" viewBox="0 0 125 185" version="1.1" xmlns="http://www.w3.org/2000/svg" xmlns:xlink="http://www.w3.org/1999/xlink">
    <!-- Generator: Sketch 50.2 (55047) - http://www.bohemiancoding.com/sketch -->
    <title>logo-ignyte</title>
    <desc>Created with Sketch.</desc>
    <defs>
        <linearGradient x1="50%" y1="11.3240784%" x2="50%" y2="95.0910082%" id="linearGradient-1">
            <stop stop-color="#6AB5B5" offset="0%"></stop>
            <stop stop-color="#789AC5" offset="55.2474711%"></stop>
            <stop stop-color="#313E95" offset="100%"></stop>
        </linearGradient>
    </defs>
    <g id="Page-1" stroke="none" stroke-width="1" fill="none" fill-rule="evenodd">
        <g id="Ignyte-Landing-Page-1" transform="translate(-658.000000, -1514.000000)">
            <g id="logo-ignyte" transform="translate(658.000000, 1514.000000)">
                <path d="M3.32412641,152.36716 L4.76939877,152.36716 L4.76939877,171.22169 C4.76939877,172.823701 3.47525782,174.122387 1.87885406,174.122387 L0.433581706,174.122387 L0.433581706,155.267857 C0.433581706,153.665847 1.72772265,152.36716 3.32412641,152.36716 Z M0.780447071,145.173432 C1.25738695,144.651307 1.86440134,144.390244 2.60149024,144.390244 C3.33857914,144.390244 3.9889517,144.651307 4.46589157,145.173432 C4.98618962,145.652047 5.24633864,146.304704 5.24633864,147.044382 C5.24633864,147.784059 4.98618962,148.393206 4.46589157,148.871821 C3.94559353,149.393946 3.33857914,149.655009 2.60149024,149.655009 C1.86440134,149.655009 1.25738695,149.393946 0.780447071,148.871821 C0.260149024,148.393206 0,147.784059 0,147.044382 C0,146.304704 0.260149024,145.695557 0.780447071,145.173432 Z M26.9254239,174.122387 L26.9254239,171.946864 C24.9743063,173.382709 22.8063977,174.122387 20.4216984,174.122387 C17.4299846,174.122387 14.8718525,173.078136 12.7473022,170.946124 C10.6227518,168.814111 9.5821557,166.246995 9.5821557,163.244774 C9.5821557,160.242552 10.6227518,157.675436 12.7473022,155.543423 C14.8718525,153.411411 17.4299846,152.36716 20.4216984,152.36716 C22.8497559,152.36716 25.0176644,153.106838 26.9254239,154.542683 C26.9254239,153.341175 27.8960297,152.36716 29.0933325,152.36716 L31.261241,152.36716 L31.261241,174.122387 C31.261241,177.081098 30.2206449,179.648214 28.0960946,181.823737 C25.9715442,183.955749 23.4134121,185 20.4216984,185 C17.4299846,185 14.8718525,183.955749 12.7473022,181.823737 L14.2337455,180.332058 C15.1216503,179.441035 16.4812388,179.227187 17.5982272,179.802862 C18.6926808,180.366924 19.6338379,180.648955 20.4216984,180.648955 C22.1993834,180.648955 23.7602775,179.996298 25.0176644,178.734495 C26.2750514,177.472692 26.9254239,175.906315 26.9254239,174.122387 Z M15.8257323,167.856882 C17.0831192,169.118685 18.6440134,169.771341 20.4216984,169.771341 C22.1993834,169.771341 23.7602775,169.118685 25.0176644,167.856882 C26.2750514,166.595078 26.9254239,165.028702 26.9254239,163.244774 C26.9254239,161.460845 26.2750514,159.894469 25.0176644,158.632666 C23.7602775,157.370862 22.1993834,156.718206 20.4216984,156.718206 C18.6440134,156.718206 17.0831192,157.370862 15.8257323,158.632666 C14.5683453,159.894469 13.9179728,161.460845 13.9179728,163.244774 C13.9179728,165.028702 14.5683453,166.595078 15.8257323,167.856882 Z M41.927351,158.545645 C40.669964,159.763937 39.9762333,161.243293 39.9328751,162.983711 L39.9328751,174.122387 L35.5970581,174.122387 L35.5970581,155.267857 C35.5970581,153.665847 36.891199,152.36716 38.4876028,152.36716 L39.9328751,152.36716 L39.9328751,154.542683 C41.8839928,153.106838 44.0519013,152.36716 46.4366007,152.36716 C49.4283145,152.36716 51.9864466,153.411411 54.1109969,155.543423 C56.2355473,157.675436 57.2761434,160.242552 57.2761434,163.244774 L57.2761434,174.122387 L55.830871,174.122387 C54.2344673,174.122387 52.9403263,172.823701 52.9403263,171.22169 L52.9403263,163.244774 C52.9403263,161.460845 52.2899538,159.894469 51.0325668,158.632666 C49.7751799,157.370862 48.2142857,156.718206 46.4366007,156.718206 C44.6589157,156.718206 43.1847379,157.327352 41.927351,158.545645 Z M71.0640416,185 L66.338001,185 L71.0206835,174.122387 L61.6119604,152.36716 L64.4446423,152.36716 C65.594522,152.36716 66.6350451,153.051115 67.0944596,154.108934 L73.4053828,168.64007 L79.6337302,154.120919 C80.0902623,153.056679 81.1341146,152.36716 82.2887206,152.36716 L85.1120889,152.36716 L71.0640416,185 Z M93.783723,152.36716 L98.1195401,152.36716 L98.1195401,156.718206 L93.783723,156.718206 L93.783723,164.85466 C93.783723,166.203484 94.2606629,167.378267 95.2145427,168.335497 C95.5730946,168.695308 96.0924579,169.004401 96.7726328,169.262775 L96.7726234,169.2628 C97.8964262,169.689694 98.6398381,170.769773 98.6398381,171.975616 L98.6398381,174.122387 C96.0817061,174.122387 93.9137975,173.208667 92.1361125,171.424739 C90.3584275,169.64081 89.447906,167.421777 89.447906,164.85466 L89.447906,144.390244 L90.8931783,144.390244 C92.4895821,144.390244 93.783723,145.68893 93.783723,147.290941 L93.783723,152.36716 Z M113.815198,169.771341 C114.603052,169.771341 115.544201,169.489315 116.638643,168.925262 L116.638629,168.925235 C117.755625,168.349559 119.11522,168.56341 120.003129,169.454438 L121.489594,170.946124 C119.365044,173.078136 116.806912,174.122387 113.815198,174.122387 C110.823484,174.122387 108.265352,173.078136 106.140802,170.946124 C104.016251,168.814111 102.975655,166.246995 102.975655,163.244774 C102.975655,160.242552 104.016251,157.675436 106.140802,155.543423 C108.265352,153.411411 110.823484,152.36716 113.815198,152.36716 C116.806912,152.36716 119.365044,153.411411 121.489594,155.543423 C124.221159,158.328092 125.218397,161.634887 124.481308,165.420296 L107.658338,165.420296 C108.005203,166.334016 108.525501,167.160714 109.219232,167.856882 C110.476619,169.118685 112.037513,169.771341 113.815198,169.771341 Z M113.815198,156.718206 C112.037513,156.718206 110.476619,157.370862 109.219232,158.632666 C108.525501,159.372343 108.005203,160.155531 107.658338,161.069251 L119.972058,161.069251 C119.668551,160.155531 119.148253,159.372343 118.411164,158.632666 C117.153777,157.370862 115.592883,156.718206 113.815198,156.718206 Z" id="ignyte-copy-14" fill="#102945"></path>
                <path d="M94.7776263,75.0480248 C92.3388971,75.5443463 89.8148752,75.804878 87.2302158,75.804878 C77.7721328,75.804878 69.1260211,72.3162057 62.5,66.5512236 C59.6244397,69.0531102 56.3684184,71.1262799 52.8306819,72.6716399 L62.8114305,84.7960329 L70.6683198,74.4711131 C73.5400446,75.7829787 76.5934272,76.7642077 79.7801716,77.3663342 L67.8974652,92.9816733 C65.7874617,95.7544777 61.8370309,96.2857764 59.0739311,94.1683621 C58.6929895,93.8764396 58.3465186,93.5418113 58.0412539,93.1709824 L42.396878,74.16654 C42.2266404,73.9597391 42.0778541,73.7422459 41.9502614,73.516779 L36.377646,66.7472888 C36.8389302,66.7693378 37.3030596,66.7804878 37.7697842,66.7804878 C53.6628705,66.7804878 66.5467626,53.851345 66.5467626,37.902439 C66.5467626,32.5030568 65.0701267,27.4497727 62.5,23.1270776 C59.9298733,27.4497727 58.4532374,32.5030568 58.4532374,37.902439 C58.4532374,42.1452833 59.3650372,46.1744174 61.0027268,49.8032784 C59.4892161,52.7728135 57.4269724,55.4139731 54.9502147,57.5920672 C51.4669403,51.8535512 49.4604317,45.1131407 49.4604317,37.902439 C49.4604317,16.9695 66.37054,0 87.2302158,0 C108.089892,0 125,16.9695 125,37.902439 C125,46.7951303 121.948226,54.972538 116.838324,61.4375254 L116.846661,61.4440901 L67.4522314,124.610279 C67.140857,125.008468 66.7829219,125.367661 66.3861261,125.680129 C63.6510842,127.833915 59.6940167,127.354927 57.5477686,124.610279 L8.1533393,61.4440901 L8.16167564,61.4375254 C3.05177423,54.972538 0,46.7951303 0,37.902439 C0,16.9695 16.9101084,0 37.7697842,0 C46.2409125,0 54.060687,2.79857183 60.3610987,7.52465784 C58.094957,9.52595665 56.073438,11.7995996 54.3473525,14.2945974 C49.6610734,10.9746366 43.9423839,9.02439024 37.7697842,9.02439024 C21.8766978,9.02439024 8.99280576,21.9535331 8.99280576,37.902439 C8.99280576,44.7266522 11.3516021,50.998004 15.295644,55.9402267 L15.2877698,55.9464275 L30.2252069,75.0486013 L30.2223737,75.0480248 L62.5,116.325041 L94.7776263,75.0480248 Z M68.5516663,15.933591 C72.951615,22.1308463 75.5395683,29.7133567 75.5395683,37.902439 C75.5395683,46.0915214 72.9516149,53.6740319 68.5516662,59.8712873 C73.5783988,64.179353 80.1016067,66.7804878 87.2302158,66.7804878 C103.123302,66.7804878 116.007194,53.851345 116.007194,37.902439 C116.007194,21.9535331 103.123302,9.02439024 87.2302158,9.02439024 C80.101607,9.02439024 73.5783993,11.6255248 68.5516663,15.933591 Z M89.574069,64.4866109 C88.7994743,64.5546976 88.015357,64.5894595 87.223149,64.5894595 C84.4036619,64.5894595 81.6866563,64.1491429 79.1366906,63.3332948 L97.1387613,39.6763577 C98.6459067,37.6957831 101.467643,37.3162841 103.441286,38.8287228 C105.414928,40.3411616 105.793099,43.1728083 104.285954,45.1533829 L89.574065,64.4866161 Z" id="Combined-Shape-Copy-24" fill="url(#linearGradient-1)"></path>
            </g>
        </g>
    </g>
</svg>