<?xml version="1.0" encoding="UTF-8"?>
<svg width="146px" height="38px" viewBox="0 0 146 38" version="1.1" xmlns="http://www.w3.org/2000/svg" xmlns:xlink="http://www.w3.org/1999/xlink">
    <!-- Generator: Sketch 50.2 (55047) - http://www.bohemiancoding.com/sketch -->
    <title>logo-ignyte-white</title>
    <desc>Created with Sketch.</desc>
    <defs></defs>
    <g id="Page-1" stroke="none" stroke-width="1" fill="none" fill-rule="evenodd">
        <g id="Ignyte-Landing-Page-1" transform="translate(-210.000000, -29.000000)" fill="#FFFFFF">
            <g id="logo-ignyte-white" transform="translate(210.000000, 29.000000)">
                <path d="M53.3465072,9.77142857 L54.4490875,9.77142857 L54.4490875,23.8857143 C54.4490875,25.0849612 53.4618035,26.0571429 52.243927,26.0571429 L51.1413468,26.0571429 L51.1413468,11.9428571 C51.1413468,10.7436103 52.1286307,9.77142857 53.3465072,9.77142857 Z M51.405966,4.38628571 C51.7698175,3.99542857 52.2329012,3.8 52.7952171,3.8 C53.357533,3.8 53.8536941,3.99542857 54.2175456,4.38628571 C54.6144745,4.74457143 54.812939,5.23314286 54.812939,5.78685714 C54.812939,6.34057143 54.6144745,6.79657143 54.2175456,7.15485714 C53.8206167,7.54571429 53.357533,7.74114286 52.7952171,7.74114286 C52.2329012,7.74114286 51.7698175,7.54571429 51.405966,7.15485714 C51.0090371,6.79657143 50.8105727,6.34057143 50.8105727,5.78685714 C50.8105727,5.23314286 51.0090371,4.77714286 51.405966,4.38628571 Z M71.3516425,26.0571429 L71.3516425,24.4285714 C69.8631592,25.5034286 68.2092889,26.0571429 66.3900315,26.0571429 C64.1076904,26.0571429 62.1561233,25.2754286 60.5353304,23.6794286 C58.9145374,22.0834286 58.1206797,20.1617143 58.1206797,17.9142857 C58.1206797,15.6668571 58.9145374,13.7451429 60.5353304,12.1491429 C62.1561233,10.5531429 64.1076904,9.77142857 66.3900315,9.77142857 C68.2423663,9.77142857 69.8962366,10.3251429 71.3516425,11.4 C71.3516425,10.5005648 72.0921055,9.77142857 73.0055129,9.77142857 L74.6593833,9.77142857 L74.6593833,26.0571429 C74.6593833,28.272 73.8655255,30.1937143 72.2447325,31.8222857 C70.6239396,33.4182857 68.6723726,34.2 66.3900315,34.2 C64.1076904,34.2 62.1561233,33.4182857 60.5353304,31.8222857 L61.6693195,30.7056321 C62.3466909,30.0386222 63.3839041,29.8785378 64.2360405,30.309482 C65.0709856,30.7317321 65.7889825,30.9428571 66.3900315,30.9428571 C67.7462052,30.9428571 68.9369918,30.4542857 69.8962366,29.5097143 C70.8554814,28.5651429 71.3516425,27.3925714 71.3516425,26.0571429 Z M62.8838263,21.3668571 C63.8430711,22.3114286 65.0338578,22.8 66.3900315,22.8 C67.7462052,22.8 68.9369918,22.3114286 69.8962366,21.3668571 C70.8554814,20.4222857 71.3516425,19.2497143 71.3516425,17.9142857 C71.3516425,16.5788571 70.8554814,15.4062857 69.8962366,14.4617143 C68.9369918,13.5171429 67.7462052,13.0285714 66.3900315,13.0285714 C65.0338578,13.0285714 63.8430711,13.5171429 62.8838263,14.4617143 C61.9245815,15.4062857 61.4284204,16.5788571 61.4284204,17.9142857 C61.4284204,19.2497143 61.9245815,20.4222857 62.8838263,21.3668571 Z M82.7964254,14.3965714 C81.8371806,15.3085714 81.3079421,16.416 81.2748647,17.7188571 L81.2748647,26.0571429 L77.967124,26.0571429 L77.967124,11.9428571 C77.967124,10.7436103 78.954408,9.77142857 80.1722845,9.77142857 L81.2748647,9.77142857 L81.2748647,11.4 C82.763348,10.3251429 84.4172184,9.77142857 86.2364758,9.77142857 C88.5188169,9.77142857 90.4703839,10.5531429 92.0911768,12.1491429 C93.7119698,13.7451429 94.5058276,15.6668571 94.5058276,17.9142857 L94.5058276,26.0571429 L93.4032473,26.0571429 C92.1853708,26.0571429 91.1980868,25.0849612 91.1980868,23.8857143 L91.1980868,17.9142857 C91.1980868,16.5788571 90.7019257,15.4062857 89.7426809,14.4617143 C88.7834361,13.5171429 87.5926495,13.0285714 86.2364758,13.0285714 C84.8803021,13.0285714 83.7556702,13.4845714 82.7964254,14.3965714 Z M105.024443,34.2 L101.419006,34.2 L104.991366,26.0571429 L97.8135683,9.77142857 L99.974586,9.77142857 C100.851815,9.77142857 101.645617,10.2834295 101.996098,11.0753006 L106.810623,21.9531429 L111.562151,11.0842726 C111.910434,10.2875944 112.706776,9.77142857 113.587611,9.77142857 L115.741523,9.77142857 L105.024443,34.2 Z M122.357004,9.77142857 L125.664745,9.77142857 L125.664745,13.0285714 L122.357004,13.0285714 L122.357004,19.1194286 C122.357004,20.1291429 122.720856,21.0085714 123.448559,21.7251429 C123.722094,21.9944934 124.118309,22.2258769 124.637206,22.4192932 L124.637199,22.419312 C125.494534,22.7388795 126.061674,23.5474144 126.061674,24.4500948 L126.061674,26.0571429 C124.110107,26.0571429 122.456237,25.3731429 121.100063,24.0377143 C119.743889,22.7022857 119.049264,21.0411429 119.049264,19.1194286 L119.049264,3.8 L120.151844,3.8 C121.36972,3.8 122.357004,4.77218169 122.357004,5.97142857 L122.357004,9.77142857 Z M137.638767,22.8 C138.239811,22.8 138.957801,22.5888782 139.792738,22.1666347 L139.792727,22.1666143 C140.644869,21.7356699 141.682087,21.8957562 142.359462,22.5627694 L143.493468,23.6794286 C141.872675,25.2754286 139.921108,26.0571429 137.638767,26.0571429 C135.356425,26.0571429 133.404858,25.2754286 131.784065,23.6794286 C130.163272,22.0834286 129.369415,20.1617143 129.369415,17.9142857 C129.369415,15.6668571 130.163272,13.7451429 131.784065,12.1491429 C133.404858,10.5531429 135.356425,9.77142857 137.638767,9.77142857 C139.921108,9.77142857 141.872675,10.5531429 143.493468,12.1491429 C145.577344,14.2337143 146.338125,16.7091429 145.775809,19.5428571 L132.941775,19.5428571 C133.206394,20.2268571 133.603323,20.8457143 134.132561,21.3668571 C135.091806,22.3114286 136.282593,22.8 137.638767,22.8 Z M137.638767,13.0285714 C136.282593,13.0285714 135.091806,13.5171429 134.132561,14.4617143 C133.603323,15.0154286 133.206394,15.6017143 132.941775,16.2857143 L142.335758,16.2857143 C142.104216,15.6017143 141.707288,15.0154286 141.144972,14.4617143 C140.185727,13.5171429 138.99494,13.0285714 137.638767,13.0285714 Z" id="logo_ignyte"></path>
                <path d="M28.7723162,22.4503915 C28.0319739,22.5988646 27.2657387,22.6768019 26.4810953,22.6768019 C23.609838,22.6768019 20.9850765,21.6331761 18.9735683,19.9085989 C18.1006141,20.6570308 17.1121606,21.2772133 16.0381848,21.7395031 L19.0681115,25.3664789 L21.4532831,22.2778101 C22.3250729,22.6702508 23.2520099,22.9637825 24.2194325,23.1439068 L20.6121151,27.8151887 C19.9715663,28.6446648 18.772306,28.8036012 17.9334922,28.1701831 C17.8178471,28.0828553 17.7126665,27.9827523 17.6199951,27.8718199 L12.870721,22.186698 C12.8190407,22.1248341 12.7738726,22.0597717 12.7351384,21.9923239 L11.04342,19.9672512 C11.1834553,19.9738471 11.3243544,19.9771826 11.4660413,19.9771826 C16.2908182,19.9771826 20.2020727,16.1094683 20.2020727,11.338401 C20.2020727,9.72319196 19.7537999,8.21151718 18.9735683,6.91839589 C18.1933367,8.21151718 17.7450639,9.72319196 17.7450639,11.338401 C17.7450639,12.6076351 18.0218654,13.8129385 18.5190304,14.8985014 C18.0595632,15.7868289 17.4335133,16.5769239 16.6816264,17.2284942 C15.6241841,15.5118343 15.015054,13.4954607 15.015054,11.338401 C15.015054,5.07637502 20.1485756,0 26.4810953,0 C32.813615,0 37.9471366,5.07637502 37.9471366,11.338401 C37.9471366,13.9986229 37.0206878,16.4448699 35.4694388,18.3788515 L35.4719695,18.3808153 L20.4769523,37.2767912 C20.3824261,37.3959084 20.2737653,37.5033597 20.1533071,37.5968336 C19.3230111,38.2411322 18.121736,38.0978444 17.4701843,37.2767912 L2.47516704,18.3808153 L2.47769776,18.3788515 C0.926448747,16.4448699 0,13.9986229 0,11.338401 C0,5.07637502 5.13352153,0 11.4660413,0 C14.0376818,0 16.4115862,0.83718437 18.3242469,2.25097882 C17.6362981,2.84966136 17.0226113,3.52981483 16.4986113,4.27618595 C15.0759643,3.28302962 13.3399011,2.69961927 11.4660413,2.69961927 C6.64126433,2.69961927 2.73000982,6.56733358 2.73000982,11.338401 C2.73000982,13.3798439 3.44608637,15.2558999 4.64340715,16.734351 L4.6410167,16.736206 L9.17568043,22.450564 L9.17482034,22.4503915 L18.9735683,34.798287 L28.7723162,22.4503915 Z M20.8107155,4.76648596 C22.1464392,6.6203763 22.9320825,8.88866155 22.9320825,11.338401 C22.9320825,13.7881404 22.1464392,16.0564257 20.8107155,17.910316 C22.3367164,19.199061 24.3170129,19.9771826 26.4810953,19.9771826 C31.3058722,19.9771826 35.2171267,16.1094683 35.2171267,11.338401 C35.2171267,6.56733358 31.3058722,2.69961927 26.4810953,2.69961927 C24.3170129,2.69961927 22.3367165,3.47774088 20.8107155,4.76648596 Z M27.1926354,19.2909762 C26.9574862,19.3113442 26.7194462,19.3217431 26.47895,19.3217431 C25.6230183,19.3217431 24.7981976,19.1900237 24.0240865,18.9459652 L29.4891027,11.8690634 C29.9466375,11.2765805 30.803252,11.1630545 31.4024047,11.615496 C32.0015575,12.0679375 32.1163615,12.9150161 31.6588267,13.5074991 L27.1926342,19.2909778 Z" id="Combined-Shape-Copy-23"></path>
            </g>
        </g>
    </g>
</svg>